<?xml version="1.0" encoding="UTF-8"?>
<svg version="1.1" xmlns="http://www.w3.org/2000/svg" width="789" height="762">
<path d="M0 0 C260.37 0 520.74 0 789 0 C789 251.46 789 502.92 789 762 C528.63 762 268.26 762 0 762 C0 510.54 0 259.08 0 0 Z " fill="#000000" transform="translate(0,0)"/>
<path d="M0 0 C0.66249756 0.32371582 1.32499512 0.64743164 2.00756836 0.98095703 C13.77325318 6.99131447 21.12513315 17.26740557 25.625 29.4375 C29.94720736 44.12095704 27.58522798 57.36379907 21.2109375 70.94140625 C12.06183324 87.27179067 -2.81816663 96.63289835 -19.4375 104.0625 C-20.76454 104.42006639 -22.09687438 104.75982551 -23.4375 105.0625 C-23.4375 104.4025 -23.4375 103.7425 -23.4375 103.0625 C-22.89222656 102.78277344 -22.34695313 102.50304687 -21.78515625 102.21484375 C-15.24913472 98.74013829 -8.94698077 94.73989851 -3.8046875 89.3515625 C-2.4375 88.0625 -2.4375 88.0625 -0.4375 88.0625 C-0.17582031 87.48757813 0.08585937 86.91265625 0.35546875 86.3203125 C1.64055748 83.91648957 3.13301418 82.03097298 4.875 79.9375 C14.67528367 67.52380736 16.90978472 54.48908237 15.5625 39.0625 C13.67354575 29.95706186 7.30996278 21.16448768 -0.4375 16.0625 C-26.74695551 0.65606209 -62.65669699 6.37836213 -90.57617188 13.4909668 C-128.00548021 23.52142309 -163.51947525 40.08108305 -195.4375 62.0625 C-196.4284668 62.73708252 -196.4284668 62.73708252 -197.43945312 63.42529297 C-217.98714917 77.45488585 -237.03464118 94.68826959 -251.4375 115.0625 C-251.87578125 115.67287109 -252.3140625 116.28324219 -252.765625 116.91210938 C-264.65017001 133.66317066 -274.64684284 153.01738189 -279.4375 173.0625 C-279.59541016 173.70993164 -279.75332031 174.35736328 -279.91601562 175.02441406 C-285.23519057 197.60354557 -283.66659451 221.11721124 -273.4375 242.0625 C-272.94636719 243.11824219 -272.45523438 244.17398438 -271.94921875 245.26171875 C-267.66298667 253.9057906 -262.2345668 260.35447774 -255.4375 267.0625 C-254.43396484 268.06410156 -254.43396484 268.06410156 -253.41015625 269.0859375 C-237.2338808 284.20203422 -214.4661031 291.97206862 -193.3125 296.6875 C-192.01892578 296.97874756 -192.01892578 296.97874756 -190.69921875 297.27587891 C-173.11648355 301.01506448 -155.83112457 302.61555232 -137.875 302.5 C-136.86269318 302.49695862 -135.85038635 302.49391724 -134.80740356 302.49078369 C-105.05080575 302.35979353 -76.43964226 298.57877569 -47.4375 292.0625 C-45.7578125 291.70442708 -44.078125 291.34635417 -42.3984375 290.98828125 C10.78386143 279.12013692 63.1963832 255.0761334 109.5625 227.0625 C110.60905762 226.43472656 111.65561523 225.80695313 112.73388672 225.16015625 C134.31544659 212.19230344 155.06108526 198.08484655 175.56201172 183.48193359 C177.64096992 182.00682218 179.72757361 180.54312196 181.81640625 179.08203125 C189.49155853 173.70751108 197.06174857 168.22692609 204.53222656 162.57128906 C210.1132524 158.36142794 215.79844053 154.31260349 221.52783203 150.30761719 C224.70519947 148.08560935 227.86836229 145.8546301 230.97265625 143.53125 C231.95105469 142.7990625 232.92945313 142.066875 233.9375 141.3125 C234.77023437 140.67828125 235.60296875 140.0440625 236.4609375 139.390625 C238.5625 138.0625 238.5625 138.0625 241.5625 138.0625 C235.95019216 143.18992095 230.3277663 148.29820925 224.58984375 153.28515625 C222.22760827 155.35609487 219.89454147 157.45762848 217.5625 159.5625 C212.21460014 164.38371275 206.81947785 169.14144027 201.33984375 173.8125 C195.78127521 178.55329323 190.25312026 183.30336217 184.875 188.25 C179.60544171 193.07532228 174.12366461 197.57952036 168.5625 202.0625 C167.33244984 203.07184094 166.1033379 204.08232598 164.875 205.09375 C156.30924021 212.13180431 147.59399679 218.9147468 138.67382812 225.49707031 C136.48671527 227.11869006 134.313087 228.75725326 132.140625 230.3984375 C84.59464688 266.13630469 31.70730662 292.76425026 -24.4375 312.0625 C-25.26620605 312.34963867 -26.09491211 312.63677734 -26.94873047 312.93261719 C-47.5277138 319.99240497 -68.93871045 324.49708121 -90.44628906 327.62451172 C-92.39551586 327.9099274 -94.34296807 328.20782778 -96.28808594 328.52001953 C-112.88116606 331.14579373 -129.42512001 331.37752022 -146.1875 331.4375 C-147.26343414 331.44535522 -148.33936829 331.45321045 -149.44790649 331.46130371 C-169.16372612 331.57323685 -188.47570185 329.93776863 -207.6875 325.3125 C-208.77119873 325.05428467 -209.85489746 324.79606934 -210.97143555 324.5300293 C-246.52603924 315.762817 -279.17483066 297.05459091 -298.55126953 265.23339844 C-316.69557862 234.33792334 -319.67556334 199.66921764 -311.22460938 165.05615234 C-307.60451837 151.28767965 -302.23413322 138.54221238 -295.4375 126.0625 C-295.11668457 125.46244141 -294.79586914 124.86238281 -294.46533203 124.24414062 C-286.7685751 109.90604799 -277.19527124 97.22671143 -266.4375 85.0625 C-265.96634766 84.52818359 -265.49519531 83.99386719 -265.00976562 83.44335938 C-259.49235277 77.21839289 -253.84354415 71.38567192 -247.4375 66.0625 C-246.50679688 65.24394531 -245.57609375 64.42539062 -244.6171875 63.58203125 C-231.95622621 52.49374904 -218.00374917 43.43530814 -203.4375 35.0625 C-202.72207031 34.64532715 -202.00664062 34.2281543 -201.26953125 33.79833984 C-165.92758802 13.27598511 -125.93230906 -1.83417559 -85.4375 -7.9375 C-84.6940332 -8.05319336 -83.95056641 -8.16888672 -83.18457031 -8.28808594 C-55.54072683 -12.40837575 -25.45302739 -12.48837551 0 0 Z " fill="#B9B9B9" transform="translate(470.4375,259.9375)"/>
<path d="M0 0 C1.6204422 -0.00855011 1.6204422 -0.00855011 3.27362061 -0.01727295 C5.54926599 -0.02665427 7.82492453 -0.0332293 10.10058594 -0.03710938 C13.49700184 -0.04673368 16.89279002 -0.07779095 20.2890625 -0.109375 C39.4890617 -0.20296035 58.50410251 1.33710002 77.234375 5.765625 C78.29446777 6.01465576 79.35456055 6.26368652 80.44677734 6.52026367 C113.81679422 14.82951119 148.37367504 33.15825059 166.61865234 63.39355469 C175.04987381 78.00522541 180.12352043 92.60733824 183.296875 109.203125 C183.46815918 109.9669751 183.63944336 110.7308252 183.81591797 111.51782227 C190.51194025 148.90338016 175.08177108 190.62295588 154.296875 221.203125 C153.67594971 222.12714111 153.67594971 222.12714111 153.04248047 223.06982422 C147.39011528 231.43020024 141.21167986 238.84371339 134.296875 246.203125 C133.08167997 247.59298872 131.87268713 248.98831605 130.671875 250.390625 C123.86789023 258.17564944 116.40439573 264.79797083 108.296875 271.203125 C107.27335937 272.02039063 106.24984375 272.83765625 105.1953125 273.6796875 C97.55929609 279.71632346 89.62132131 285.15673017 81.296875 290.203125 C80.57628906 290.64350098 79.85570312 291.08387695 79.11328125 291.53759766 C56.21391646 305.41526919 31.63049064 316.57793975 6.296875 325.203125 C5.28802246 325.55068848 4.27916992 325.89825195 3.23974609 326.25634766 C-14.43577576 332.26441998 -32.3175117 336.14233271 -50.703125 339.203125 C-52.35139282 339.47926636 -52.35139282 339.47926636 -54.03295898 339.76098633 C-58.36726739 340.28313311 -62.61519352 340.38389786 -66.9765625 340.40625 C-67.8585733 340.41195007 -68.74058411 340.41765015 -69.64932251 340.42352295 C-71.51343605 340.43293362 -73.37756594 340.43949121 -75.24169922 340.44335938 C-78.03514402 340.45297702 -80.82782391 340.48400121 -83.62109375 340.515625 C-104.56588975 340.63966601 -124.94170338 337.98734306 -141.703125 324.203125 C-152.31499962 313.44632341 -158.61700582 300.4825578 -159.078125 285.265625 C-158.56639238 268.93282552 -151.92210543 255.87294545 -140.703125 244.203125 C-132.05037922 236.43202726 -119.47655498 227.8364332 -107.703125 226.203125 C-108.97942743 228.75572987 -110.1102114 229.05624751 -112.640625 230.328125 C-127.84559746 238.54702903 -139.94641046 251.79958358 -145.703125 268.203125 C-148.17440816 277.60726963 -148.32920743 290.2425039 -144.03125 299.03515625 C-136.87555099 310.71578258 -128.98283555 317.40499017 -115.703125 321.203125 C-107.54664982 322.95825906 -99.59469708 323.55814293 -91.265625 323.515625 C-89.5798938 323.51042847 -89.5798938 323.51042847 -87.86010742 323.50512695 C-77.28567316 323.36983519 -67.09239545 322.08475225 -56.703125 320.203125 C-55.40632813 319.9865625 -54.10953125 319.77 -52.7734375 319.546875 C-42.99317639 317.78011815 -33.58533425 314.92008538 -24.11474609 311.9453125 C-22.51393615 311.45265587 -20.9073179 310.97847209 -19.29541016 310.5234375 C-12.52600216 308.60050971 -6.14868414 306.01616751 0.296875 303.203125 C1.2362793 302.79433105 2.17568359 302.38553711 3.14355469 301.96435547 C22.9963133 293.22125316 42.38142355 283.49475964 60.296875 271.203125 C60.97588867 270.7390625 61.65490234 270.275 62.35449219 269.796875 C80.89355479 257.06732643 98.53480524 243.14075991 112.296875 225.203125 C113.19639446 224.08885993 114.09889925 222.97700021 115.00390625 221.8671875 C138.70344197 192.63653912 154.64154966 155.35825483 151.296875 117.203125 C148.29323062 93.3798272 136.43955824 72.34329707 117.609375 57.453125 C110.61296433 52.45439748 103.1086147 48.7345383 95.296875 45.203125 C94.12640625 44.66816406 92.9559375 44.13320312 91.75 43.58203125 C48.70008684 25.16623507 -6.14522786 24.13919173 -51.68164062 32.64306641 C-54.71905158 33.20607713 -57.76105659 33.70294732 -60.8125 34.18359375 C-119.19178385 43.52964165 -174.93808628 67.37126308 -225.703125 97.203125 C-227.31550049 98.14309326 -227.31550049 98.14309326 -228.96044922 99.10205078 C-250.27904001 111.53508482 -271.04114157 124.71145375 -291.578125 138.390625 C-292.26255676 138.84648987 -292.94698853 139.30235474 -293.65216064 139.77203369 C-307.03041103 148.69180585 -320.29461664 157.77463342 -333.453125 167.015625 C-335.13538413 168.19535889 -336.81767689 169.37504484 -338.5 170.5546875 C-339.77133789 171.44655762 -339.77133789 171.44655762 -341.06835938 172.35644531 C-343.8042409 174.27399608 -346.54243268 176.18820754 -349.28125 178.1015625 C-350.18907227 178.73602295 -351.09689453 179.3704834 -352.03222656 180.02416992 C-353.77343561 181.24094718 -355.51495705 182.45727756 -357.25683594 183.6730957 C-358.04348633 184.22312256 -358.83013672 184.77314941 -359.640625 185.33984375 C-360.33027344 185.82155029 -361.01992188 186.30325684 -361.73046875 186.79956055 C-363.74732035 188.23457043 -365.72922548 189.70972871 -367.703125 191.203125 C-368.363125 190.873125 -369.023125 190.543125 -369.703125 190.203125 C-363.11179862 184.04891974 -356.44660006 178.10640981 -349.41796875 172.44921875 C-346.59639005 170.1148191 -343.89721788 167.68321902 -341.203125 165.203125 C-336.78672356 161.14328855 -332.24148978 157.30988679 -327.57421875 153.54296875 C-324.47325214 151.01578644 -321.43153756 148.42678946 -318.390625 145.828125 C-312.80150389 141.06874277 -307.07302463 136.51312007 -301.28125 132.00390625 C-298.29401927 129.67552766 -295.34278685 127.30582297 -292.3984375 124.92358398 C-239.90594234 82.51984225 -181.41148436 45.1297974 -117.703125 22.203125 C-116.13111328 21.59597656 -116.13111328 21.59597656 -114.52734375 20.9765625 C-78.94116676 7.50682518 -38.01819485 0.16153847 0 0 Z " fill="#B9B9B9" transform="translate(474.703125,116.796875)"/>
<path d="M0 0 C0.66 0.33 1.32 0.66 2 1 C-3.61230784 6.12742095 -9.2347337 11.23570925 -14.97265625 16.22265625 C-17.33489173 18.29359487 -19.66795853 20.39512848 -22 22.5 C-27.34789986 27.32121275 -32.74302215 32.07894027 -38.22265625 36.75 C-43.78122479 41.49079323 -49.30937974 46.24086217 -54.6875 51.1875 C-59.95705829 56.01282228 -65.43883539 60.51702036 -71 65 C-72.23005016 66.00934094 -73.4591621 67.01982598 -74.6875 68.03125 C-83.25325979 75.06930431 -91.96850321 81.8522468 -100.88867188 88.43457031 C-103.07578473 90.05619006 -105.249413 91.69475326 -107.421875 93.3359375 C-157.97718011 131.33576107 -214.72843401 159.33674779 -274.875 178.5625 C-275.66003906 178.81427002 -276.44507813 179.06604004 -277.25390625 179.32543945 C-280.27461608 180.26737758 -282.81639001 181 -286 181 C-286 180.34 -286 179.68 -286 179 C-286.92232422 178.85304688 -286.92232422 178.85304688 -287.86328125 178.703125 C-294.36507937 177.5002405 -294.36507937 177.5002405 -297.0625 175.375 C-299.53127877 169.12076046 -297.62828254 163.20174546 -296 157 C-295.3100293 156.85079102 -294.62005859 156.70158203 -293.90917969 156.54785156 C-236.19688792 143.85077005 -180.49277373 120.50689059 -130 90 C-128.95344238 89.37222656 -127.90688477 88.74445313 -126.82861328 88.09765625 C-105.24705341 75.12980344 -84.50141474 61.02234655 -64.00048828 46.41943359 C-61.92153008 44.94432218 -59.83492639 43.48062196 -57.74609375 42.01953125 C-50.07094147 36.64501108 -42.50075143 31.16442609 -35.03027344 25.50878906 C-28.77043965 20.78689174 -22.36832545 16.27896729 -15.94921875 11.77734375 C-7.61134256 6.31573319 -7.61134256 6.31573319 0 0 Z " fill="#B8B8B8" transform="translate(710,397)"/>
<path d="M0 0 C8.20632044 4.94500407 14.22045517 11.0968659 16.98828125 20.3671875 C18.91904787 29.75773423 16.82183554 37.48962728 12.16796875 45.6484375 C7.95664643 51.95345699 2.07399957 55.12901584 -4.58203125 58.45703125 C-7.47183516 58.63581222 -10.31528663 58.73483031 -13.20703125 58.76953125 C-13.98949219 58.79853516 -14.77195312 58.82753906 -15.578125 58.85742188 C-23.24982017 58.94011842 -29.37106883 56.17042421 -35.13671875 51.06640625 C-41.75185333 43.7003645 -45.16640597 34.92856749 -44.8828125 25.0625 C-43.7962339 15.65018924 -38.61464538 8.56060573 -31.58203125 2.45703125 C-22.06414487 -3.97006957 -10.45233122 -4.8254645 0 0 Z " fill="#B9B9B9" transform="translate(419.58203125,326.54296875)"/>
<path d="M0 0 C0.66249756 0.32371582 1.32499512 0.64743164 2.00756836 0.98095703 C13.77325318 6.99131447 21.12513315 17.26740557 25.625 29.4375 C29.94720736 44.12095704 27.58522798 57.36379907 21.2109375 70.94140625 C12.06183324 87.27179067 -2.81816663 96.63289835 -19.4375 104.0625 C-20.76454 104.42006639 -22.09687438 104.75982551 -23.4375 105.0625 C-23.4375 104.4025 -23.4375 103.7425 -23.4375 103.0625 C-22.89222656 102.78277344 -22.34695313 102.50304687 -21.78515625 102.21484375 C-15.24913472 98.74013829 -8.94698077 94.73989851 -3.8046875 89.3515625 C-2.4375 88.0625 -2.4375 88.0625 -0.4375 88.0625 C-0.17582031 87.48757813 0.08585937 86.91265625 0.35546875 86.3203125 C1.64055748 83.91648957 3.13301418 82.03097298 4.875 79.9375 C14.67528367 67.52380736 16.90978472 54.48908237 15.5625 39.0625 C13.67354575 29.95706186 7.30996278 21.16448768 -0.4375 16.0625 C-25.0615798 1.64299381 -56.12046583 6.74621313 -82.66845703 11.45849609 C-88.07782714 12.36361003 -90.90188467 10.83743073 -95.3125 7.75 C-97.06668661 5.11872009 -96.81472307 3.14315505 -96.4375 0.0625 C-94.9375 -2.3125 -94.9375 -2.3125 -93.4375 -3.9375 C-94.4275 -4.5975 -95.4175 -5.2575 -96.4375 -5.9375 C-93.50071053 -6.42138552 -90.56317724 -6.89967411 -87.625 -7.375 C-86.40393555 -7.57706055 -86.40393555 -7.57706055 -85.15820312 -7.78320312 C-56.95761506 -12.31741532 -26.05927766 -12.78582857 0 0 Z " fill="#B6B6B6" transform="translate(470.4375,259.9375)"/>
<path d="M0 0 C3.06414008 2.34700091 4.75172078 3.727569 5.5 7.5625 C4.91531612 10.41283392 3.80953281 11.75617932 2 14 C1.89187988 14.65170166 1.78375977 15.30340332 1.67236328 15.97485352 C1 18 1 18 -0.85986328 19.25756836 C-1.67181152 19.61471924 -2.48375977 19.97187012 -3.3203125 20.33984375 C-4.23586914 20.75580811 -5.15142578 21.17177246 -6.09472656 21.6003418 C-7.0947168 22.041604 -8.09470703 22.48286621 -9.125 22.9375 C-21.49947587 28.63110605 -33.24842153 35.12668218 -45 42 C-46.62542725 42.94649414 -46.62542725 42.94649414 -48.28369141 43.91210938 C-69.59297795 56.34124844 -90.34636009 69.51388616 -110.875 83.1875 C-111.55943176 83.64336487 -112.24386353 84.09922974 -112.94903564 84.56890869 C-126.32728603 93.48868085 -139.59149164 102.57150842 -152.75 111.8125 C-154.43225913 112.99223389 -156.11455189 114.17191984 -157.796875 115.3515625 C-158.64443359 115.94614258 -159.49199219 116.54072266 -160.36523438 117.15332031 C-163.1011159 119.07087108 -165.83930768 120.98508254 -168.578125 122.8984375 C-169.48594727 123.53289795 -170.39376953 124.1673584 -171.32910156 124.82104492 C-173.07031061 126.03782218 -174.81183205 127.25415256 -176.55371094 128.4699707 C-177.34036133 129.01999756 -178.12701172 129.57002441 -178.9375 130.13671875 C-179.62714844 130.61842529 -180.31679687 131.10013184 -181.02734375 131.59643555 C-183.04419535 133.03144543 -185.02610048 134.50660371 -187 136 C-187.66 135.67 -188.32 135.34 -189 135 C-182.40867362 128.84579474 -175.74347506 122.90328481 -168.71484375 117.24609375 C-165.89326505 114.9116941 -163.19409288 112.48009402 -160.5 110 C-156.08359856 105.94016355 -151.53836478 102.10676179 -146.87109375 98.33984375 C-143.77012714 95.81266144 -140.72841256 93.22366446 -137.6875 90.625 C-132.09837889 85.86561777 -126.36989963 81.30999507 -120.578125 76.80078125 C-117.59089427 74.47240266 -114.63966185 72.10269797 -111.6953125 69.72045898 C-84.40749018 47.67719801 -55.47631001 27.60616986 -25.44970703 9.48095703 C-23.84252313 8.50934276 -22.23917374 7.53135118 -20.64013672 6.54638672 C-18.47978937 5.21912361 -16.3057976 3.91830869 -14.125 2.625 C-13.18950317 2.04335083 -13.18950317 2.04335083 -12.23510742 1.44995117 C-7.80084431 -1.11648975 -4.91958645 -1.31742846 0 0 Z " fill="#B7B7B7" transform="translate(294,172)"/>
<path d="M0 0 C-8.98657329 5.99104886 -25.2958744 4.6059878 -35.71875 5.30273438 C-37.40871094 5.4177832 -37.40871094 5.4177832 -39.1328125 5.53515625 C-40.64705811 5.63389038 -40.64705811 5.63389038 -42.19189453 5.73461914 C-44.92987405 5.93710391 -44.92987405 5.93710391 -47.29277039 6.49749756 C-50.26800227 7.04974524 -53.0991651 7.20718249 -56.1237793 7.30541992 C-57.96393364 7.36600334 -57.96393364 7.36600334 -59.84126282 7.42781067 C-61.18973272 7.46673413 -62.53821876 7.50510202 -63.88671875 7.54296875 C-64.93117944 7.573826 -64.93117944 7.573826 -65.99674034 7.60530663 C-84.26571664 8.1389257 -102.53654457 8.28545791 -120.8125 8.3125 C-121.67720161 8.31423973 -122.54190323 8.31597946 -123.43280792 8.31777191 C-152.61715898 8.36934849 -181.47093339 7.40516697 -210.51159668 4.26428223 C-213.08095775 3.99140184 -215.65181784 3.73981691 -218.22363281 3.49121094 C-219.87049136 3.32535218 -221.51730357 3.1590324 -223.1640625 2.9921875 C-223.91472992 2.92178253 -224.66539734 2.85137756 -225.43881226 2.77883911 C-229.01985513 2.40080617 -230.94392017 2.03738655 -234 0 C-232.70376709 -0.11593506 -231.40753418 -0.23187012 -230.07202148 -0.35131836 C-225.24307789 -0.78370991 -220.41435488 -1.21852343 -215.58569336 -1.65405273 C-213.49948936 -1.8418839 -211.41322684 -2.02906637 -209.3269043 -2.21557617 C-206.32064282 -2.48444048 -203.3146025 -2.75567014 -200.30859375 -3.02734375 C-198.91911781 -3.1508445 -198.91911781 -3.1508445 -197.50157166 -3.27684021 C-192.64002329 -3.71864748 -187.83331441 -4.30814812 -183 -5 C-122.30900026 -10.24431601 -60.34087719 -7.97035401 0 0 Z " fill="#1E1E1E" transform="translate(504,699)"/>
<path d="M0 0 C2.65230564 0.03823143 3.97456823 0.26762763 6.17578125 1.78125 C9.04060876 4.78966075 10.70492949 7.43021379 11 11.625 C10.18812204 16.20103943 8.87716326 17.63088079 5.3125 20.5 C4.9825 20.83 4.6525 21.16 4.3125 21.5 C-2.76366708 22.08968059 -2.76366708 22.08968059 -6.625 19.625 C-10.00980986 16.13762014 -10.07349822 13.46413062 -10.05078125 8.76171875 C-9.4793883 5.20433683 -7.4362971 3.64540262 -4.6875 1.5 C-3.6875 0.5 -3.6875 0.5 0 0 Z " fill="#B4B4B4" transform="translate(473.6875,189.5)"/>
<path d="M0 0 C3.50165855 2.5881824 4.77470816 4.27111465 6.0625 8.4375 C5.98454913 12.88069934 4.87270176 14.66145471 2 18 C-0.47037063 19.87407427 -2.27624182 20.0460403 -5.375 20.5625 C-9.82906603 19.87135182 -11.23882125 18.59179382 -13.890625 15.0703125 C-15.87708608 11.36318444 -15.73838223 9.16179077 -15 5 C-10.51671736 -0.69498066 -6.97866418 -1.68450515 0 0 Z " fill="#B4B4B4" transform="translate(460,485)"/>
<path d="M0 0 C3.21093673 2.44310404 4.69865985 4.11481331 6 7.9375 C6 11.81045073 5.14268559 13.78597162 3 17 C0.26211268 19.21990864 -1.51431274 19.92917061 -5 20.4375 C-8.77306522 19.88726132 -10.32400737 18.67599263 -13 16 C-15.28647877 12.73360176 -15.54954056 9.92528971 -15 6 C-11.1254241 -0.42285467 -7.20816696 -1.73990237 0 0 Z " fill="#090909" transform="translate(185,403)"/>
<path d="M0 0 C2.87029869 1.79393668 4.49131638 2.98263276 6 6 C6.5811138 13.08958838 6.5811138 13.08958838 4.125 16.9375 C1.28630124 19.69270762 -0.445232 20.22301287 -4.3125 20.4375 C-8.1758643 20.37518767 -8.86169039 20.11008316 -12.0625 17.5625 C-14.33016811 14.22815873 -14.73469421 11.1026019 -14.47265625 7.125 C-14 5 -14 5 -12.0625 1.9375 C-7.95859581 -0.65884755 -4.73725096 -0.95259938 0 0 Z " fill="#B6B6B6" transform="translate(201,282)"/>
<path d="M0 0 C2.99559257 1.29011865 3.81502626 2.32340716 6 5 C6.73994373 8.14760681 6.68576465 10.84548261 6 14 C4.20606332 16.87029869 3.01736724 18.49131638 0 20 C-7.08958838 20.5811138 -7.08958838 20.5811138 -10.9375 18.125 C-14.09695358 14.8698054 -14.33421243 12.57586762 -14.29296875 8.0390625 C-13.83745033 4.86865433 -12.24684343 3.1807598 -10 1 C-6.75514188 -0.62242906 -3.5066405 -0.55197119 0 0 Z " fill="#B6B6B6" transform="translate(294,488)"/>
<path d="M0 0 C3.70219508 2.54525912 4.7681855 4.18864925 6 8.5 C6 13.32773113 4.52272814 15.42288871 1.25 18.8125 C-2.08187066 20.57098729 -4.28346973 20.51262487 -8 20 C-12.00535091 17.55228556 -13.66804391 16.07397557 -15.0625 11.5625 C-14.99118687 7.49765169 -14.20649268 5.38854234 -12 2 C-7.97500157 -0.68333228 -4.72857864 -0.79639219 0 0 Z " fill="#070707" transform="translate(580,136)"/>
<path d="M0 0 C4.04212164 2.47018545 5.67811019 3.93965709 7.0625 8.5 C6.97663991 13.30816501 5.51517785 15.43070865 2.25 18.8125 C-1.08187066 20.57098729 -3.28346973 20.51262487 -7 20 C-10.20613573 18.10006771 -12.39902918 16.66525993 -13.69921875 13.0625 C-14.31888626 9.54438767 -14.19024657 7.46059696 -12.8125 4.125 C-9.11571983 -0.20915606 -5.62337521 -0.67868322 0 0 Z " fill="#060606" transform="translate(621,318)"/>
<path d="M0 0 C4.00437835 0.81722007 6.76802551 2.24572295 9.0625 5.625 C9.92949115 8.82130738 9.92240571 11.42776668 9.0625 14.625 C7.29289986 17.3694325 6.08375869 17.97704071 3.0625 19.625 C-1.67668775 19.87443093 -3.36135592 19.12912607 -6.9375 16 C-8.9375 12.625 -8.9375 12.625 -9.0625 9.0625 C-7.41961208 4.04256467 -5.30898496 1.12957127 0 0 Z " fill="#B3B3B3" transform="translate(519.9375,336.375)"/>
<path d="M0 0 C2.95473023 1.54159838 4.52908229 2.68087964 5.66796875 5.87109375 C6.41605771 9.78930224 6.33289313 11.46048354 4.1875 14.9375 C1.41934501 17.54747471 0.50869523 17.94241186 -3.3125 18.375 C-7 18 -7 18 -9.9375 16 C-12.23092162 12.66411401 -12.75815509 10.90015906 -12.48046875 6.9375 C-10.87278432 0.45447986 -5.98096831 -0.96122705 0 0 Z " fill="#090909" transform="translate(424,557)"/>
<path d="M0 0 C3 2.0625 3 2.0625 5 5 C5.06944397 8.95830645 4.5699479 11.14507816 2.375 14.4375 C-0.9617771 16.63274809 -3.08548544 16.55921637 -7 16 C-9.4375 14.5625 -9.4375 14.5625 -11 12 C-11.54355239 8.89558741 -11.5698369 6.1017926 -11 3 C-8.12305622 -0.79756579 -4.48944315 -0.63009728 0 0 Z " fill="#B3B3B3" transform="translate(290,357)"/>
<path d="M0 0 C1.9453125 0.37890625 1.9453125 0.37890625 4.5078125 1.94140625 C5.9453125 4.37890625 5.9453125 4.37890625 5.9453125 7.94140625 C4.9453125 11.37890625 4.9453125 11.37890625 3.2578125 13.31640625 C0.20928373 14.71708163 -1.73395702 14.86317945 -5.0546875 14.37890625 C-7.4296875 12.75390625 -7.4296875 12.75390625 -9.0546875 10.37890625 C-9.53757613 7.06766993 -9.35087739 5.08235725 -8.0546875 2.00390625 C-5.46231192 -0.10239891 -3.28423543 -0.18784372 0 0 Z " fill="#0A0A0A" transform="translate(383.0546875,255.62109375)"/>
<path d="M0 0 C2.7912125 1.98322993 3.82597224 3.12986121 4.5 6.5 C3.82597224 9.87013879 2.7912125 11.01677007 0 13 C-3.70758991 13.61793165 -5.2935202 13.50197249 -8.375 11.3125 C-10 9 -10 9 -10.5 6.5 C-9.33827182 0.69135908 -5.5534724 -0.92557873 0 0 Z " fill="#0D0D0D" transform="translate(295,173)"/>
<path d="M0 0 C0.66 0.33 1.32 0.66 2 1 C-3.60206717 6.11806505 -9.21367127 11.21777981 -14.94140625 16.1953125 C-18.99983899 19.75317953 -22.99575024 23.38140544 -27 27 C-28.04139907 24.44383866 -28.10089708 23.27643036 -27.14453125 20.65625 C-23.947095 16.69585537 -19.92773622 14.25855368 -15.6875 11.5 C-10.2182491 7.89288885 -4.93683402 4.31670969 0 0 Z " fill="#A6A6A6" transform="translate(710,397)"/>
<path d="M0 0 C0.66 0.33 1.32 0.66 2 1 C1.34 1.66 0.68 2.32 0 3 C-0.17535278 4.19278564 -0.17535278 4.19278564 -0.35424805 5.40966797 C-1.20091763 8.80594937 -2.45849909 9.51853448 -5.33203125 11.4453125 C-6.21310547 12.04730469 -7.09417969 12.64929688 -8.00195312 13.26953125 C-8.92943359 13.88183594 -9.85691406 14.49414062 -10.8125 15.125 C-12.63166016 16.35654967 -14.45067582 17.58831283 -16.26953125 18.8203125 C-17.48539917 19.62879639 -17.48539917 19.62879639 -18.72583008 20.45361328 C-20.86770065 21.91003928 -22.94162893 23.42843177 -25 25 C-25.66 24.67 -26.32 24.34 -27 24 C-20.30207414 17.74626468 -13.54729046 11.68273868 -6.375 5.97265625 C-4.1101357 4.09147784 -2.04485817 2.11586019 0 0 Z " fill="#A8A8A8" transform="translate(132,283)"/>
<path d="M0 0 C-0.90621094 0.556875 -1.81242187 1.11375 -2.74609375 1.6875 C-10.07523315 6.25637956 -16.77358033 10.95477243 -23 17 C-24.42254034 14.78715946 -25.13315701 13.6346736 -24.58203125 11.0078125 C-22.20729573 7.99395063 -19.05124394 6.5616819 -15.6875 4.875 C-15.02298828 4.52824219 -14.35847656 4.18148438 -13.67382812 3.82421875 C-3.80844368 -1.26948123 -3.80844368 -1.26948123 0 0 Z " fill="#B1B1B1" transform="translate(367,344)"/>
<path d="M0 0 C0 4.07587476 -1.25991672 4.98590839 -4 8 C-6.00138242 9.79198225 -8.03164657 11.5368579 -10.09765625 13.25390625 C-12.03422641 15.03141521 -13.46669343 16.8720593 -15 19 C-17.5 21.75 -17.5 21.75 -20 24 C-20.99 24 -21.98 24 -23 24 C-15.52463837 15.79406201 -7.91983913 7.77952702 0 0 Z " fill="#0E0E0E" transform="translate(248,342)"/>
<path d="M0 0 C0.66 0.33 1.32 0.66 2 1 C0.50253294 4.88997191 -1.70422078 6.46948052 -5.125 8.75 C-6.49011719 9.67039062 -6.49011719 9.67039062 -7.8828125 10.609375 C-8.93082031 11.29773438 -8.93082031 11.29773438 -10 12 C-10.66 11.67 -11.32 11.34 -12 11 C-8.04 7.37 -4.08 3.74 0 0 Z " fill="#939393" transform="translate(117,296)"/>
<path d="M0 0 C-5.94 3.465 -5.94 3.465 -12 7 C-12 6.34 -12 5.68 -12 5 C-12.66 4.67 -13.32 4.34 -14 4 C-12.23494565 3.13395466 -10.46271926 2.28251358 -8.6875 1.4375 C-7.70136719 0.96183594 -6.71523438 0.48617188 -5.69921875 -0.00390625 C-3 -1 -3 -1 0 0 Z " fill="#9A9A9A" transform="translate(367,344)"/>
<path d="M0 0 C0.66 0.33 1.32 0.66 2 1 C-1.63 4.3 -5.26 7.6 -9 11 C-9.99 10.34 -10.98 9.68 -12 9 C-11.21753906 8.43410156 -10.43507813 7.86820312 -9.62890625 7.28515625 C-8.61699219 6.55167969 -7.60507812 5.81820313 -6.5625 5.0625 C-5.55316406 4.33160156 -4.54382813 3.60070312 -3.50390625 2.84765625 C-1.17707392 1.22678115 -1.17707392 1.22678115 0 0 Z " fill="#818181" transform="translate(710,397)"/>
<path d="M0 0 C0.66 0.33 1.32 0.66 2 1 C-1.96 4.96 -5.92 8.92 -10 13 C-10.66 12.67 -11.32 12.34 -12 12 C-8.32167983 7.47384007 -4.58913637 3.60575001 0 0 Z " fill="#A7A7A7" transform="translate(340,356)"/>
<path d="M0 0 C0.66 0.33 1.32 0.66 2 1 C1 4 1 4 -0.99609375 5.16796875 C-1.80175781 5.50441406 -2.60742188 5.84085937 -3.4375 6.1875 C-4.24058594 6.53167969 -5.04367187 6.87585938 -5.87109375 7.23046875 C-8 8 -8 8 -10 8 C-10 7.34 -10 6.68 -10 6 C-9.36191406 5.65066406 -8.72382813 5.30132812 -8.06640625 4.94140625 C-7.24011719 4.48636719 -6.41382813 4.03132813 -5.5625 3.5625 C-4.73878906 3.11003906 -3.91507812 2.65757812 -3.06640625 2.19140625 C-1.07691202 1.16337603 -1.07691202 1.16337603 0 0 Z " fill="#8F8F8F" transform="translate(457,357)"/>
<path d="M0 0 C0.99 0.33 1.98 0.66 3 1 C2 4 2 4 -1.0625 5.6875 C-2.031875 6.120625 -3.00125 6.55375 -4 7 C-2.92598892 4.08482708 -2.22189824 2.22189824 0 0 Z " fill="#AFAFAF" transform="translate(122,292)"/>
<path d="M0 0 C0.66 0.33 1.32 0.66 2 1 C0.4169423 5.2742558 -2.50568404 7.26531794 -6 10 C-6.66 9.67 -7.32 9.34 -8 9 C-5.36 6.03 -2.72 3.06 0 0 Z " fill="#1C1C1C" transform="translate(233,357)"/>
<path d="M0 0 C0.33 0.99 0.66 1.98 1 3 C-2.3 2.67 -5.6 2.34 -9 2 C-9 1.67 -9 1.34 -9 1 C-5.846632 0.29925156 -3.27275026 0 0 0 Z " fill="#848484" transform="translate(383,253)"/>
<path d="M0 0 C0 0.33 0 0.66 0 1 C-1.134375 1.12375 -2.26875 1.2475 -3.4375 1.375 C-5.2009375 1.684375 -5.2009375 1.684375 -7 2 C-7.33 2.66 -7.66 3.32 -8 4 C-8 3.34 -8 2.68 -8 2 C-8.99 1.67 -9.98 1.34 -11 1 C-7.2297564 -1.56376565 -4.32597804 -0.83191885 0 0 Z " fill="#9E9E9E" transform="translate(294,172)"/>
<path d="M0 0 C0 0.99 0 1.98 0 3 C-3 5.1875 -3 5.1875 -6 7 C-5.37162381 3.35541809 -4.14650034 0 0 0 Z " fill="#B1B1B1" transform="translate(692,413)"/>
</svg>
